<mxfile host="app.diagrams.net" modified="2024-01-01T14:30:20.240Z" agent="Mozilla/5.0 (Windows NT 10.0; Win64; x64) AppleWebKit/537.36 (KHTML, like Gecko) Chrome/120.0.0.0 Safari/537.36" etag="r3f831zTlqfVBWvFJ7q9" version="22.1.16" type="device">
  <diagram name="PÃ¡gina-1" id="ZEuAeOW-aaHc1jTqwq8g">
    <mxGraphModel dx="1674" dy="772" grid="1" gridSize="10" guides="1" tooltips="1" connect="1" arrows="1" fold="1" page="1" pageScale="1" pageWidth="827" pageHeight="1169" math="0" shadow="0">
      <root>
        <mxCell id="0" />
        <mxCell id="1" parent="0" />
        <mxCell id="giai0ezst3skdWIEa4bA-11" value="AWS Cloud" style="points=[[0,0],[0.25,0],[0.5,0],[0.75,0],[1,0],[1,0.25],[1,0.5],[1,0.75],[1,1],[0.75,1],[0.5,1],[0.25,1],[0,1],[0,0.75],[0,0.5],[0,0.25]];outlineConnect=0;gradientColor=none;html=1;whiteSpace=wrap;fontSize=12;fontStyle=0;container=1;pointerEvents=0;collapsible=0;recursiveResize=0;shape=mxgraph.aws4.group;grIcon=mxgraph.aws4.group_aws_cloud_alt;strokeColor=#232F3E;fillColor=none;verticalAlign=top;align=left;spacingLeft=30;fontColor=#232F3E;dashed=0;" vertex="1" parent="1">
          <mxGeometry x="100" y="230" width="810" height="260" as="geometry" />
        </mxCell>
        <mxCell id="giai0ezst3skdWIEa4bA-4" value="Grant Permission" style="sketch=0;points=[[0,0,0],[0.25,0,0],[0.5,0,0],[0.75,0,0],[1,0,0],[0,1,0],[0.25,1,0],[0.5,1,0],[0.75,1,0],[1,1,0],[0,0.25,0],[0,0.5,0],[0,0.75,0],[1,0.25,0],[1,0.5,0],[1,0.75,0]];outlineConnect=0;fontColor=#232F3E;fillColor=#ED7100;strokeColor=#ffffff;dashed=0;verticalLabelPosition=bottom;verticalAlign=top;align=center;html=1;fontSize=12;fontStyle=0;aspect=fixed;shape=mxgraph.aws4.resourceIcon;resIcon=mxgraph.aws4.lambda;" vertex="1" parent="giai0ezst3skdWIEa4bA-11">
          <mxGeometry x="350" y="91" width="78" height="78" as="geometry" />
        </mxCell>
        <mxCell id="giai0ezst3skdWIEa4bA-5" value="LakeFormation" style="sketch=0;points=[[0,0,0],[0.25,0,0],[0.5,0,0],[0.75,0,0],[1,0,0],[0,1,0],[0.25,1,0],[0.5,1,0],[0.75,1,0],[1,1,0],[0,0.25,0],[0,0.5,0],[0,0.75,0],[1,0.25,0],[1,0.5,0],[1,0.75,0]];outlineConnect=0;fontColor=#232F3E;fillColor=#8C4FFF;strokeColor=#ffffff;dashed=0;verticalLabelPosition=bottom;verticalAlign=top;align=center;html=1;fontSize=12;fontStyle=0;aspect=fixed;shape=mxgraph.aws4.resourceIcon;resIcon=mxgraph.aws4.lake_formation;" vertex="1" parent="giai0ezst3skdWIEa4bA-11">
          <mxGeometry x="510" y="91" width="78" height="78" as="geometry" />
        </mxCell>
        <mxCell id="giai0ezst3skdWIEa4bA-8" style="edgeStyle=orthogonalEdgeStyle;rounded=0;orthogonalLoop=1;jettySize=auto;html=1;exitX=1;exitY=0.5;exitDx=0;exitDy=0;exitPerimeter=0;entryX=0;entryY=0.5;entryDx=0;entryDy=0;entryPerimeter=0;" edge="1" parent="giai0ezst3skdWIEa4bA-11" source="giai0ezst3skdWIEa4bA-4" target="giai0ezst3skdWIEa4bA-5">
          <mxGeometry relative="1" as="geometry" />
        </mxCell>
        <mxCell id="giai0ezst3skdWIEa4bA-9" value="Athena Query Done" style="sketch=0;points=[[0,0,0],[0.25,0,0],[0.5,0,0],[0.75,0,0],[1,0,0],[0,1,0],[0.25,1,0],[0.5,1,0],[0.75,1,0],[1,1,0],[0,0.25,0],[0,0.5,0],[0,0.75,0],[1,0.25,0],[1,0.5,0],[1,0.75,0]];outlineConnect=0;fontColor=#232F3E;fillColor=#8C4FFF;strokeColor=#ffffff;dashed=0;verticalLabelPosition=bottom;verticalAlign=top;align=center;html=1;fontSize=12;fontStyle=0;aspect=fixed;shape=mxgraph.aws4.resourceIcon;resIcon=mxgraph.aws4.athena;" vertex="1" parent="giai0ezst3skdWIEa4bA-11">
          <mxGeometry x="670" y="91" width="78" height="78" as="geometry" />
        </mxCell>
        <mxCell id="giai0ezst3skdWIEa4bA-10" style="edgeStyle=orthogonalEdgeStyle;rounded=0;orthogonalLoop=1;jettySize=auto;html=1;exitX=1;exitY=0.5;exitDx=0;exitDy=0;exitPerimeter=0;entryX=0;entryY=0.5;entryDx=0;entryDy=0;entryPerimeter=0;" edge="1" parent="giai0ezst3skdWIEa4bA-11" source="giai0ezst3skdWIEa4bA-5" target="giai0ezst3skdWIEa4bA-9">
          <mxGeometry relative="1" as="geometry" />
        </mxCell>
        <mxCell id="giai0ezst3skdWIEa4bA-12" value="User" style="sketch=0;outlineConnect=0;fontColor=#232F3E;gradientColor=none;fillColor=#232F3D;strokeColor=none;dashed=0;verticalLabelPosition=bottom;verticalAlign=top;align=center;html=1;fontSize=12;fontStyle=0;aspect=fixed;pointerEvents=1;shape=mxgraph.aws4.authenticated_user;" vertex="1" parent="giai0ezst3skdWIEa4bA-11">
          <mxGeometry x="208" y="61" width="38" height="38" as="geometry" />
        </mxCell>
        <mxCell id="giai0ezst3skdWIEa4bA-23" style="edgeStyle=orthogonalEdgeStyle;rounded=0;orthogonalLoop=1;jettySize=auto;html=1;entryX=0;entryY=0.5;entryDx=0;entryDy=0;" edge="1" parent="giai0ezst3skdWIEa4bA-11" source="giai0ezst3skdWIEa4bA-1" target="giai0ezst3skdWIEa4bA-20">
          <mxGeometry relative="1" as="geometry" />
        </mxCell>
        <mxCell id="giai0ezst3skdWIEa4bA-1" value="Permission &lt;br&gt;Athena and S3" style="sketch=0;outlineConnect=0;fontColor=#232F3E;gradientColor=none;fillColor=#DD344C;strokeColor=none;dashed=0;verticalLabelPosition=bottom;verticalAlign=top;align=center;html=1;fontSize=12;fontStyle=0;aspect=fixed;pointerEvents=1;shape=mxgraph.aws4.permissions;" vertex="1" parent="giai0ezst3skdWIEa4bA-11">
          <mxGeometry x="40" y="91" width="62" height="78" as="geometry" />
        </mxCell>
        <mxCell id="giai0ezst3skdWIEa4bA-16" value="Role" style="sketch=0;outlineConnect=0;fontColor=#232F3E;gradientColor=none;fillColor=#DD344C;strokeColor=none;dashed=0;verticalLabelPosition=bottom;verticalAlign=top;align=center;html=1;fontSize=12;fontStyle=0;aspect=fixed;pointerEvents=1;shape=mxgraph.aws4.role;" vertex="1" parent="giai0ezst3skdWIEa4bA-11">
          <mxGeometry x="200.41000000000003" y="159" width="53.18" height="30" as="geometry" />
        </mxCell>
        <mxCell id="giai0ezst3skdWIEa4bA-21" value="OR" style="text;html=1;align=center;verticalAlign=middle;resizable=0;points=[];autosize=1;strokeColor=none;fillColor=none;" vertex="1" parent="giai0ezst3skdWIEa4bA-11">
          <mxGeometry x="208" y="123" width="40" height="30" as="geometry" />
        </mxCell>
        <mxCell id="giai0ezst3skdWIEa4bA-20" value="" style="fillColor=none;strokeColor=#5A6C86;dashed=1;verticalAlign=top;fontStyle=0;fontColor=#5A6C86;whiteSpace=wrap;html=1;" vertex="1" parent="giai0ezst3skdWIEa4bA-11">
          <mxGeometry x="162" y="40" width="130" height="180" as="geometry" />
        </mxCell>
        <mxCell id="giai0ezst3skdWIEa4bA-24" style="edgeStyle=orthogonalEdgeStyle;rounded=0;orthogonalLoop=1;jettySize=auto;html=1;exitX=1;exitY=0.5;exitDx=0;exitDy=0;entryX=0;entryY=0.5;entryDx=0;entryDy=0;entryPerimeter=0;" edge="1" parent="giai0ezst3skdWIEa4bA-11" source="giai0ezst3skdWIEa4bA-20" target="giai0ezst3skdWIEa4bA-4">
          <mxGeometry relative="1" as="geometry" />
        </mxCell>
      </root>
    </mxGraphModel>
  </diagram>
</mxfile>
